<svg width="16" height="16" viewBox="0 0 16 16" fill="none" xmlns="http://www.w3.org/2000/svg">
<g clip-path="url(#clip0_2537_16267)">
<path d="M3.55615 7.2002H5.33393V8.8002H3.55615V7.2002ZM3.55615 10.4002H5.33393V12.0002H3.55615V10.4002ZM7.11171 7.2002H8.88949V8.8002H7.11171V7.2002ZM7.11171 10.4002H8.88949V12.0002H7.11171V10.4002ZM10.6673 7.2002H12.445V8.8002H10.6673V7.2002ZM10.6673 10.4002H12.445V12.0002H10.6673V10.4002Z" fill="#0F1B17"/>
<path d="M1.77778 16H14.2222C15.2027 16 16 15.2824 16 14.4V3.2C16 2.3176 15.2027 1.6 14.2222 1.6H12.4444V0H10.6667V1.6H5.33333V0H3.55556V1.6H1.77778C0.797333 1.6 0 2.3176 0 3.2V14.4C0 15.2824 0.797333 16 1.77778 16ZM14.2222 4.8L14.2231 14.4H1.77778V4.8H14.2222Z" fill="#0F1B17"/>
</g>
<defs>
<clipPath id="clip0_2537_16267">
<rect width="16" height="16" fill="white"/>
</clipPath>
</defs>
</svg>
