<svg width="15" height="15" viewBox="0 0 15 15" fill="none" xmlns="http://www.w3.org/2000/svg">
<path d="M4.53025 13.7805L11.5 6.81071L8.1895 3.50021L1.21975 10.47C1.1238 10.566 1.05564 10.6863 1.0225 10.818L0.25 14.7502L4.1815 13.9777C4.3135 13.9447 4.43425 13.8765 4.53025 13.7805ZM13.75 4.56071C14.0312 4.27942 14.1892 3.89796 14.1892 3.50021C14.1892 3.10247 14.0312 2.72101 13.75 2.43971L12.5605 1.25021C12.2792 0.969008 11.8977 0.811035 11.5 0.811035C11.1023 0.811035 10.7208 0.969008 10.4395 1.25021L9.25 2.43971L12.5605 5.75022L13.75 4.56071Z" fill="white"/>
</svg>
