<svg width="34" height="34" viewBox="0 0 34 34" fill="none" xmlns="http://www.w3.org/2000/svg">
<path d="M6.94149 25.386L1.98713 21.4891C1.71649 21.2855 1.62788 20.9262 1.79032 20.6909C2.58439 19.5409 4.11408 19.1482 5.61707 19.7084L10.0978 22.2501L6.94149 25.386Z" fill="#42A8C3"/>
<path d="M8.604 27.0486L12.5111 32.0132C12.7147 32.2838 13.0741 32.3724 13.3093 32.21L13.6047 32.006C14.5774 31.3344 14.9095 30.0405 14.4357 28.7692L11.7501 23.9025L8.604 27.0486Z" fill="#42A8C3"/>
<path d="M7.23037 20.6234L4.42725 23.4084L6.94131 25.3858L10.0977 22.2499L7.23037 20.6234Z" fill="#219FC0"/>
<path d="M8.28394 10.1235C7.66174 9.50129 7.61252 8.50988 8.16838 7.82779C8.96343 6.85214 9.95953 5.76575 10.5571 5.16822C11.3745 4.35077 11.4459 4.44843 12.3193 3.91308C12.4479 3.83424 12.6138 3.85325 12.7205 3.95989L14.4476 5.68704C14.5543 5.79368 14.5732 5.95963 14.4944 6.08821C13.9591 6.96158 14.0567 7.03293 13.2393 7.85038C12.6418 8.4479 11.5554 9.444 10.5797 10.239C9.89755 10.7948 8.90607 10.7457 8.28394 10.1235Z" fill="#FFBFAB"/>
<path d="M23.8767 25.7163C23.2545 25.0941 23.2053 24.1027 23.7612 23.4206C24.5562 22.4449 25.5523 21.3585 26.1498 20.761C26.9673 19.9435 27.0386 20.0412 27.9121 19.5059C28.0406 19.427 28.2066 19.446 28.3132 19.5527L30.0404 21.2798C30.147 21.3864 30.166 21.5524 30.0872 21.681C29.5518 22.5544 29.6495 22.6257 28.832 23.4432C28.2345 24.0407 27.1481 25.0368 26.1725 25.8319C25.4903 26.3877 24.4989 26.3385 23.8767 25.7163Z" fill="#FFBFAB"/>
<path d="M16.0836 16.013L22.1961 9.9006L3.26105 3.95138C2.87114 3.85184 2.48351 3.94663 2.22557 4.20457L0.625827 5.80431C0.0900853 6.34005 0.320033 7.32215 1.07635 7.72827L16.0836 16.013Z" fill="#42A8C3"/>
<path d="M17.9177 8.55652L12.4609 14.0133L16.0837 16.0132L22.1961 9.90073L17.9177 8.55652Z" fill="#219FC0"/>
<path d="M17.9868 17.9166L24.0992 11.8042L30.0485 30.7392C30.148 31.1291 30.0532 31.5168 29.7953 31.7747L28.1955 33.3744C27.6598 33.9102 26.6777 33.6802 26.2716 32.9239L17.9868 17.9166Z" fill="#42A8C3"/>
<path d="M29.5242 9.23461L19.2555 19.5033C17.5324 21.2263 15.7006 22.8335 13.7827 24.3047L8.89704 28.0526C7.76599 28.9204 6.4208 29.0253 5.69782 28.3023C4.97484 27.5793 5.07979 26.2342 5.9475 25.1031L9.69542 20.2174C11.1666 18.2996 12.7737 16.4678 14.4969 14.7447L24.7656 4.47602C26.1694 3.07224 27.7816 1.90264 29.4848 1.09965C30.9516 0.408177 32.5106 -0.0250262 33.2679 0.732265C34.0252 1.48956 33.592 3.04861 32.9005 4.51534C32.0976 6.21866 30.928 7.83083 29.5242 9.23461Z" fill="#E0F3FC"/>
<path d="M33.2676 0.732292C33.0011 0.465755 32.6349 0.347135 32.2087 0.334961C32.2394 1.12363 31.8974 2.12389 31.4444 3.08457C30.6415 4.78776 29.4719 6.4 28.0681 7.80377L17.7994 18.0725C16.0764 19.7955 14.2445 21.4027 12.3267 22.8738L7.44101 26.6217C6.72161 27.1736 5.91575 27.4164 5.23828 27.3344C5.28919 27.7103 5.44095 28.0456 5.69759 28.3022C6.42057 29.0252 7.76575 28.9202 8.89681 28.0525L13.7825 24.3046C15.7003 22.8334 17.5321 21.2263 19.2552 19.5032L29.5239 9.23457C30.9277 7.83079 32.0973 6.21855 32.9003 4.51536C33.5917 3.04863 34.0249 1.48958 33.2676 0.732292Z" fill="#C3D3DB"/>
<path d="M30.3749 7.26822L30.0243 7.61887C29.6986 7.94452 26.0558 4.30168 26.3814 3.97603L26.7321 3.62538C26.9531 3.40435 27.2775 3.33469 27.5417 3.45155C28.858 4.03384 29.9664 5.14231 30.5488 6.45865C30.6655 6.72277 30.5959 7.04719 30.3749 7.26822Z" fill="#51C4F5"/>
<path d="M6.80711 27.681C6.68218 27.681 6.55718 27.6334 6.46187 27.538C6.27118 27.3473 6.27118 27.0381 6.46187 26.8475L10.7259 22.5834C10.9166 22.3928 11.2258 22.3928 11.4164 22.5834C11.6071 22.7741 11.6071 23.0833 11.4164 23.2739L7.15236 27.538C7.05705 27.6333 6.93211 27.681 6.80711 27.681Z" fill="#42A8C3" fill-opacity="0.92"/>
</svg>
