<svg width="24" height="25" viewBox="0 0 24 25" fill="none" xmlns="http://www.w3.org/2000/svg">
<path d="M2.36407 13.4579C1.98463 10.8208 1.79491 9.50229 2.33537 8.37495C2.87583 7.2476 4.02619 6.56234 6.32691 5.19181L7.71175 4.36687C9.80104 3.12229 10.8457 2.5 12 2.5C13.1543 2.5 14.199 3.12229 16.2882 4.36687L17.6731 5.19181C19.9738 6.56234 21.1242 7.2476 21.6646 8.37495C22.2051 9.50229 22.0154 10.8208 21.6359 13.4579L21.3572 15.3952C20.8697 18.7827 20.626 20.4764 19.451 21.4882C18.2759 22.5 16.5526 22.5 13.1061 22.5H10.8939C7.44737 22.5 5.72409 22.5 4.54903 21.4882C3.37396 20.4764 3.13025 18.7827 2.64284 15.3952L2.36407 13.4579Z" stroke="#C4CDCA" stroke-width="1.5"/>
<path d="M15 18.5H9" stroke="#C4CDCA" stroke-width="1.5" stroke-linecap="round"/>
</svg>
