<svg width="40" height="40" viewBox="0 0 40 40" fill="none" xmlns="http://www.w3.org/2000/svg">
<g clip-path="url(#clip0_1561_39570)">
<path d="M8.83336 13H0V40H8.83336V13Z" fill="#E8EAEA"/>
<path d="M39.9999 13H31.1665V40H39.9999V13Z" fill="#E8EAEA"/>
<path d="M0 13.5H40C40 12.5 39.1666 11.6666 38.1666 11.6666H1.83336C0.833359 11.6666 0 12.5 0 13.5Z" fill="#FFA679"/>
<path d="M31.1669 8.49988H8.8335V39.9999H31.1669V8.49988Z" fill="#F2F2F2"/>
<path d="M32.4164 6.66663H7.58314C7.08314 6.66663 6.6665 7.08327 6.6665 7.58327C6.6665 8.08327 7.08314 8.49998 7.58314 8.49998H32.4165C32.9165 8.49998 33.3331 8.08334 33.3331 7.58334C33.3331 7.08334 32.9164 6.66663 32.4164 6.66663Z" fill="#FFA679"/>
<path d="M6.33336 15.5H2.5V19.75H6.33336V15.5Z" fill="#42A8C3"/>
<path d="M6.33336 21.4167H2.5V25.6667H6.33336V21.4167Z" fill="#42A8C3"/>
<path d="M6.33336 27.3333H2.5V31.5833H6.33336V27.3333Z" fill="#42A8C3"/>
<path d="M6.33336 33.2499H2.5V37.4999H6.33336V33.2499Z" fill="#42A8C3"/>
<path d="M37.4999 15.5H33.6665V19.75H37.4999V15.5Z" fill="#42A8C3"/>
<path d="M37.4999 21.4167H33.6665V25.6667H37.4999V21.4167Z" fill="#42A8C3"/>
<path d="M37.4999 27.3333H33.6665V31.5833H37.4999V27.3333Z" fill="#42A8C3"/>
<path d="M37.4999 33.2499H33.6665V37.4999H37.4999V33.2499Z" fill="#42A8C3"/>
<path d="M15.5001 22.9166H11.3335V27.1666H15.5001V22.9166Z" fill="#8ECBDB"/>
<path d="M24.4166 29.5834H15.5V40H24.4166V29.5834Z" fill="#056D8A"/>
<path d="M40 38.25H0V40H40V38.25Z" fill="#ACB3BA"/>
<path d="M15.5001 11.0834H11.3335V15.3334H15.5001V11.0834Z" fill="#8ECBDB"/>
<path d="M15.5001 17.0001H11.3335V21.2501H15.5001V17.0001Z" fill="#8ECBDB"/>
<path d="M22.0836 11.0834H17.917V15.3334H22.0836V11.0834Z" fill="#8ECBDB"/>
<path d="M22.0836 17.0001H17.917V21.2501H22.0836V17.0001Z" fill="#8ECBDB"/>
<path d="M22.0836 22.9167H17.917V27.1667H22.0836V22.9167Z" fill="#8ECBDB"/>
<path d="M28.6666 11.0834H24.5V15.3334H28.6666V11.0834Z" fill="#8ECBDB"/>
<path d="M28.6666 17.0001H24.5V21.2501H28.6666V17.0001Z" fill="#8ECBDB"/>
<path d="M28.6666 22.9167H24.5V27.1667H28.6666V22.9167Z" fill="#8ECBDB"/>
</g>
<defs>
<clipPath id="clip0_1561_39570">
<rect width="40" height="40" fill="white"/>
</clipPath>
</defs>
</svg>
