<svg width="158" height="27" viewBox="0 0 158 27" fill="none" xmlns="http://www.w3.org/2000/svg">
<g clip-path="url(#clip0_2196_12839)">
<path d="M13.0365 13.163H24.2514V14.227C24.2514 22.4917 18.8223 26.5 12.4294 26.5C5.78628 26.5 0 21.4631 0 13.5887C0 5.71383 5.85765 0.677368 12.4294 0.677368C18.6082 0.677368 22.8941 3.94064 23.8227 9.1547H19.4298C18.6082 6.31711 15.858 4.65024 12.4294 4.65024C8.14353 4.65024 4.32197 8.01982 4.32197 13.5887C4.32197 19.1575 8.14353 22.5271 12.4294 22.5271C16.5365 22.5271 19.1439 20.4696 19.8584 16.7098H13.0365V13.163Z" fill="#FFD700"/>
<path d="M41.4297 17.2422C41.4297 13.8726 39.0364 11.7442 36.0721 11.7442C33.1078 11.7442 30.7505 13.8726 30.7505 17.2422C30.7505 20.6118 33.1078 22.7402 36.0721 22.7402C39.0364 22.7402 41.4297 20.6118 41.4297 17.2422ZM26.6431 17.2422C26.6431 12.0636 30.5007 7.98438 36.0721 7.98438C41.6799 7.98438 45.5372 12.0636 45.5372 17.2422C45.5372 22.4208 41.6799 26.5 36.0721 26.5C30.5007 26.5 26.6431 22.4208 26.6431 17.2422Z" fill="#FFD700"/>
<path d="M63.4296 17.2422C63.4296 13.908 61.0005 11.7442 58.0362 11.7442C55.1433 11.7442 52.679 13.908 52.679 17.2422C52.679 20.5763 55.1433 22.7402 58.0362 22.7402C61.0005 22.7402 63.4296 20.5763 63.4296 17.2422ZM52.679 23.6624V26.0034H48.8574V1.17393H52.9645V10.5739C53.9649 9.22598 56.2147 7.98438 58.8578 7.98438C63.8225 7.98438 67.5013 12.0636 67.5013 17.2422C67.5013 22.4208 63.7155 26.5 58.7864 26.5C55.8574 26.5 53.8574 25.2942 52.679 23.6624Z" fill="#FFD700"/>
<path d="M74.072 14.972H83.7512C83.2869 12.7019 81.5367 11.2122 78.8222 11.2122C76.5367 11.2122 74.6791 12.631 74.072 14.972ZM87.6085 18.0935H73.8218C73.965 21.1796 76.1791 23.0595 78.8222 23.0595C81.2508 23.0595 82.9297 21.7825 83.4653 19.938H87.3944C86.4653 23.9463 83.394 26.5 78.8222 26.5C73.4293 26.5 69.7861 22.5275 69.7861 17.2422C69.7861 11.8151 73.8218 7.98438 78.7865 7.98438C84.2151 7.98438 87.6085 11.354 87.6085 17.2776V18.0935Z" fill="#FFD700"/>
<path d="M91.1069 1.17342H95.2144V26.0029H91.1069V1.17342Z" fill="#FFD700"/>
<path d="M99.6427 8.48043H103.75V26.0029H99.6427V8.48043ZM98.9639 3.23094C98.9639 1.70542 100.178 0.499649 101.714 0.499649C103.214 0.499649 104.429 1.70542 104.429 3.23094C104.429 4.72061 103.214 5.92636 101.714 5.92636C100.178 5.92636 98.9639 4.72061 98.9639 3.23094Z" fill="#FFD700"/>
<path d="M112.607 26.0029L106.607 8.48043H110.964L114.286 19.0862C114.572 19.973 114.75 20.6821 114.965 21.4981C115.143 20.6821 115.358 19.973 115.608 19.0862L118.929 8.48043H123.322L117.286 26.0029H112.607Z" fill="#FFD700"/>
<path d="M128.607 14.972H138.286C137.822 12.7019 136.072 11.2122 133.357 11.2122C131.072 11.2122 129.214 12.631 128.607 14.972ZM142.144 18.0935H128.357C128.5 21.1796 130.714 23.0595 133.357 23.0595C135.786 23.0595 137.465 21.7825 138 19.938H141.93C141 23.9463 137.929 26.5 133.357 26.5C127.964 26.5 124.321 22.5275 124.321 17.2422C124.321 11.8151 128.357 7.98438 133.322 7.98438C138.751 7.98438 142.144 11.354 142.144 17.2776V18.0935Z" fill="#FFD700"/>
<path d="M144.571 20.2928H148.678C148.678 21.8534 149.714 22.9883 151.393 22.9883C152.964 22.9883 154 22.1727 154 20.9666C154 19.7608 153.178 19.1579 151.357 18.6255L148.892 17.9164C146.535 17.2422 144.892 15.6108 144.892 13.128C144.892 9.97102 147.785 7.98439 151.25 7.98439C155.143 7.98439 157.465 10.2904 157.465 13.376H153.607C153.607 12.2412 152.607 11.2831 151.25 11.2831C149.893 11.2831 148.892 11.9573 148.892 12.9504C148.892 13.9793 149.643 14.5468 151.321 15.0075L153.893 15.7525C156.286 16.4263 158 17.9518 158 20.5767C158 23.875 155.321 26.5 151.357 26.5C147.392 26.5 144.571 24.0172 144.571 20.2928Z" fill="#FFD700"/>
</g>
<defs>
<clipPath id="clip0_2196_12839">
<rect width="158" height="26" fill="white" transform="translate(0 0.5)"/>
</clipPath>
</defs>
</svg>
