<svg width="21" height="16" viewBox="0 0 21 16" fill="none" xmlns="http://www.w3.org/2000/svg">
<path d="M12.273 4.45353V0L17.1165 4.84353L21 8.72699L17.0476 12.0208L12.273 16V11.6422C3.89073 11.0104 0.953953 15.8611 0.953953 15.8611C0.953953 12.8389 1.20297 9.70249 3.57894 7.32754C6.34079 4.56467 10.3405 4.36916 12.273 4.45353Z" fill="#FFD700"/>
<path d="M12.7734 4.97559L12.251 4.95312C10.3468 4.87001 6.53703 5.07548 3.93262 7.68066V7.68164C2.05953 9.55401 1.58459 11.9426 1.48145 14.457C1.90014 14.0424 2.46724 13.5603 3.20215 13.0928C5.07468 11.9015 8.0115 10.8195 12.3105 11.1436L12.7734 11.1787V14.9316L16.7275 11.6367L20.2598 8.69238L16.7627 5.19727L12.7734 1.20703V4.97559Z" stroke="black" stroke-opacity="0.2"/>
</svg>
