<svg width="28" height="30" viewBox="0 0 28 30" fill="none" xmlns="http://www.w3.org/2000/svg">
<g filter="url(#filter0_d_2573_12915)">
<path d="M10.0334 3.65784C10.3793 2.78072 11.6207 2.78072 11.9666 3.65785L13.0386 6.37599C13.1442 6.64378 13.3562 6.85576 13.624 6.96137L16.3422 8.03339C17.2193 8.37932 17.2193 9.62068 16.3422 9.96661L13.624 11.0386C13.3562 11.1442 13.1442 11.3562 13.0386 11.624L11.9666 14.3422C11.6207 15.2193 10.3793 15.2193 10.0334 14.3422L8.96137 11.624C8.85575 11.3562 8.64378 11.1442 8.37599 11.0386L5.65784 9.96661C4.78072 9.62067 4.78072 8.37932 5.65785 8.03339L8.37599 6.96137C8.64378 6.85575 8.85576 6.64378 8.96137 6.37599L10.0334 3.65784Z" stroke="#FFD700" stroke-width="1.5"/>
<path d="M18.4885 13.3481C18.6715 12.884 19.3285 12.884 19.5115 13.3481L20.3121 15.3781C20.368 15.5198 20.4802 15.632 20.6219 15.6879L22.6519 16.4885C23.116 16.6715 23.116 17.3285 22.6519 17.5115L20.6219 18.3121C20.4802 18.368 20.368 18.4802 20.3121 18.6219L19.5115 20.6519C19.3285 21.116 18.6715 21.116 18.4885 20.6519L17.6879 18.6219C17.632 18.4802 17.5198 18.368 17.3781 18.3121L15.3481 17.5115C14.884 17.3285 14.884 16.6715 15.3481 16.4885L17.3781 15.6879C17.5198 15.632 17.632 15.5198 17.6879 15.3781L18.4885 13.3481Z" stroke="#FFD700" stroke-width="1.5"/>
</g>
<defs>
<filter id="filter0_d_2573_12915" x="-2" y="0" width="32" height="32" filterUnits="userSpaceOnUse" color-interpolation-filters="sRGB">
<feFlood flood-opacity="0" result="BackgroundImageFix"/>
<feColorMatrix in="SourceAlpha" type="matrix" values="0 0 0 0 0 0 0 0 0 0 0 0 0 0 0 0 0 0 127 0" result="hardAlpha"/>
<feOffset dy="4"/>
<feGaussianBlur stdDeviation="2"/>
<feComposite in2="hardAlpha" operator="out"/>
<feColorMatrix type="matrix" values="0 0 0 0 1 0 0 0 0 0.843137 0 0 0 0 0 0 0 0 0.12 0"/>
<feBlend mode="normal" in2="BackgroundImageFix" result="effect1_dropShadow_2573_12915"/>
<feBlend mode="normal" in="SourceGraphic" in2="effect1_dropShadow_2573_12915" result="shape"/>
</filter>
</defs>
</svg>
